<?xml version="1.0" encoding="utf-8"?>
<!-- Generator: Adobe Illustrator 20.0.0, SVG Export Plug-In . SVG Version: 6.00 Build 0)  -->
<svg version="1.1" id="Layer_1" xmlns="http://www.w3.org/2000/svg" xmlns:xlink="http://www.w3.org/1999/xlink" x="0px" y="0px"
	 viewBox="0 0 404.1 106" style="enable-background:new 0 0 404.1 106;" xml:space="preserve">
<style type="text/css">
	.st0{fill:none;}
	.st1{fill:#7A717F;}
</style>
<g>
	<rect x="112.8" y="80.7" class="st0" width="6.7" height="6.7"/>
	<polygon class="st0" points="153.1,48.3 146.6,54.7 147.4,66.9 153.8,60.4 153.4,54.3 	"/>
	<polygon class="st0" points="146,46.9 140,46.5 133.5,53 145.6,53.7 152.1,47.3 	"/>
	
		<rect x="194.8" y="21.8" transform="matrix(0.7071 -0.7071 0.7071 0.7071 38.8002 151.0333)" class="st0" width="13.8" height="13.8"/>
	<polygon class="st0" points="154.4,46.9 154.8,53 155.2,59.1 161.6,52.6 160.9,40.5 155.3,46.1 	"/>
	<polygon class="st0" points="159.9,39.5 147.8,38.7 141.3,45.2 147.3,45.6 153.4,45.9 	"/>
	
		<rect x="10.4" y="21.8" transform="matrix(0.7071 -0.7071 0.7071 0.7071 -15.2148 20.6283)" class="st0" width="13.8" height="13.8"/>
	<rect x="281.7" y="77.4" class="st0" width="6.7" height="6.7"/>
	<polygon class="st0" points="249.7,44.3 250.6,45.2 256.6,44.8 262.7,44.5 256.2,38 244.1,38.7 249.7,44.3 	"/>
	
		<rect x="379.9" y="21.8" transform="matrix(0.7071 -0.7071 0.7071 0.7071 93.0104 281.9083)" class="st0" width="13.8" height="13.8"/>
	<polygon class="st0" points="249.2,52.3 249.6,46.2 244.7,41.4 243.1,39.7 242.4,51.9 248.8,58.3 	"/>
	<polygon class="st0" points="250.5,53.6 250.2,59.7 256.6,66.1 257.4,54 250.9,47.5 	"/>
	<polygon class="st0" points="258,46.2 251.9,46.5 256.6,51.3 258.4,53 270.5,52.3 264,45.8 	"/>
	<path class="st1" d="M398.6,28.7l-11.8-11.8l-11.3,11.3v-0.2H225.4L202,51.1l-20.9-23.1h-9.5l-0.1-0.1l-0.1,0.1h-143L17.3,16.9
		L5.5,28.7l11.8,11.8l11.1-11.1h141.6l-8.7,8.7l-14-0.9l-7.8,7.8l-1.3,1.3l-7.8,7.8l14,0.9l-24.2,24.2h-8.8v9.6h9.6v-8.5l24.3-24.3
		l0.9,14l7.8-7.8l1.3-1.3l7.8-7.8l-0.9-14l0.9-0.9h0l8.8-8.8h8.5l21.5,23.8L226,29.4h7.2l-0.2,0.2l8.8,8.8l-0.9,14l9.1,9.1v0
		l7.8,7.8l0.9-14l21,21l0.5-0.5v9.6h9.6v-9.6h-9.6l0.5-0.5l-21-21l14-0.9l-9.1-9.1h0l-7.8-7.8l-14,0.9l-0.9-0.9l0,0l-7.1-7.1h140.8
		v-0.2l11.3,11.3L398.6,28.7z M17.3,38.4l-9.7-9.7l9.7-9.7l9.7,9.7L17.3,38.4z M141.3,45.2l6.5-6.5l12.1,0.8l-6.5,6.5l-6.1-0.4
		L141.3,45.2z M133.5,53l6.5-6.5l6.1,0.4l6.1,0.4l-6.5,6.5L133.5,53z M119.5,87.4h-6.7v-6.7h6.7V87.4z M147.4,66.9l-0.8-12.1
		l6.5-6.5l0.4,6.1l0.4,6.1L147.4,66.9z M161.6,52.6l-6.5,6.5l-0.4-6.1l-0.4-6.1l0.9-0.9l5.6-5.6L161.6,52.6z M281.7,77.4h6.7v6.7
		h-6.7V77.4z M243.1,39.7l1.6,1.6l4.8,4.8l-0.4,6.1l-0.4,6.1l-6.5-6.5L243.1,39.7z M256.6,66.1l-6.5-6.5l0.4-6.1l0.4-6.1l6.5,6.5
		L256.6,66.1z M258.4,53l-1.8-1.8l-4.7-4.7l6.1-0.4l6.1-0.4l6.5,6.5L258.4,53z M256.2,38l6.5,6.5l-6.1,0.4l-6.1,0.4l-0.9-0.9v0
		l-5.6-5.6L256.2,38z M386.8,19l9.7,9.7l-9.7,9.7l-9.7-9.7L386.8,19z"/>
	<path class="st1" d="M213.5,28.7l-11.8-11.8l-11.8,11.8l11.8,11.8L213.5,28.7z M201.7,19l9.7,9.7l-9.7,9.7l-9.7-9.7L201.7,19z"/>
</g>
</svg>
