<?xml version="1.0" encoding="utf-8"?>
<!-- Generator: Adobe Illustrator 20.0.0, SVG Export Plug-In . SVG Version: 6.00 Build 0)  -->
<svg version="1.1" id="Layer_1" xmlns="http://www.w3.org/2000/svg" xmlns:xlink="http://www.w3.org/1999/xlink" x="0px" y="0px"
	 viewBox="0 0 401.3 164.2" style="enable-background:new 0 0 401.3 164.2;" xml:space="preserve">
<style type="text/css">
	.st0{fill:#8D7F93;}
	.st1{fill:none;}
</style>
<g>
	<g>
		<path class="st0" d="M384.3,159.1l-11.9-11.9l11.9-11.9l11.9,11.9L384.3,159.1z M374.5,147.2l9.8,9.8l9.8-9.8l-9.8-9.8
			L374.5,147.2z"/>
	</g>
	<g>
		<polygon class="st1" points="281.4,85.7 287.1,80 275.7,80 		"/>
		<polygon class="st1" points="282.1,86.5 287.8,92.1 287.8,80.8 		"/>
		<polygon class="st1" points="200.2,77.1 200.2,65.5 178.3,43.6 165.8,43.6 192.8,70.6 		"/>
		<polygon class="st1" points="240.3,104.5 262.2,82.6 262.2,70.1 232.8,99.5 232.8,99.6 232.7,99.6 227.8,104.5 		"/>
		<polygon class="st1" points="238.5,80 244.1,85.7 249.8,80 		"/>
		<polygon class="st1" points="201.9,79.9 201.9,88.5 206.5,84.5 211.1,80.4 211.1,75.3 206.5,75.3 		"/>
		<polygon class="st1" points="181.4,61.7 175.7,56 175.7,67.4 		"/>
		<polygon class="st1" points="182.1,62.5 176.5,68.2 187.8,68.2 		"/>
		<polygon class="st1" points="192.8,73.1 191.3,71.6 191.3,73.1 		"/>
		<polygon class="st1" points="237.7,80.8 237.7,92.1 243.4,86.4 		"/>
		<polygon class="st1" points="262.7,126.1 283.8,105 262.8,84 262.7,84 241.7,105 		"/>
		<polygon class="st1" points="262.2,127.5 240.3,105.6 227.8,105.6 262.2,140 		"/>
		<polygon class="st1" points="244.1,124.5 238.5,130.1 249.8,130.1 		"/>
		<polygon class="st1" points="235.9,131.9 235.9,116.2 232.8,113.1 232.8,135.1 254.8,135.1 251.6,131.9 		"/>
		<polygon class="st1" points="263.3,82.6 285.2,104.5 297.6,104.5 263.3,70.1 		"/>
		<polygon class="st1" points="287.1,130.1 281.4,124.4 275.7,130.1 		"/>
		<polygon class="st1" points="285.2,105.6 263.3,127.5 263.3,140 292.7,110.6 292.7,110.5 292.7,110.5 297.6,105.6 		"/>
		<polygon class="st1" points="243.4,123.7 237.7,118 237.7,129.4 		"/>
		<polygon class="st1" points="289.6,131.9 273.9,131.9 270.7,135.1 292.7,135.1 292.7,113.1 289.6,116.1 		"/>
		<polygon class="st1" points="287.8,129.4 287.8,118 282.1,123.7 		"/>
		<polygon class="st1" points="201.9,114 201.9,121.9 211.1,113.8 211.1,104.6 208.6,106.8 201.9,112.7 		"/>
		<polygon class="st1" points="201.9,91.7 201.9,99.7 206.5,95.6 211.1,91.5 211.1,82.3 206.5,86.4 201.9,90.4 		"/>
		<polygon class="st1" points="201.9,102.8 201.9,110.8 208.4,105.1 211.1,102.7 211.1,93.5 206.5,97.5 201.9,101.6 		"/>
		<polygon class="st1" points="178.3,42.5 200.2,20.6 200.2,8.2 170.8,37.6 170.8,37.6 170.7,37.6 165.8,42.5 		"/>
		<polygon class="st1" points="176.5,18 182.1,23.7 187.8,18 		"/>
		
			<rect x="194.5" y="140.3" transform="matrix(0.7071 -0.7071 0.7071 0.7071 -45.1173 185.5396)" class="st1" width="13.9" height="13.9"/>
		
			<rect x="10.1" y="140.3" transform="matrix(0.7072 -0.7071 0.7071 0.7072 -99.1191 55.1425)" class="st1" width="13.9" height="13.9"/>
		<rect x="114.6" y="18.3" class="st1" width="6.8" height="6.8"/>
		<polygon class="st1" points="225.8,67.4 225.8,56 220.1,61.7 		"/>
		<polygon class="st1" points="223.2,43.6 201.3,65.5 201.3,77.9 201.6,77.6 230.7,48.6 230.7,48.5 230.7,48.5 235.6,43.6 		"/>
		<polygon class="st1" points="211.1,73.1 211.1,71.2 208.9,73.1 		"/>
		<polygon class="st1" points="200.7,64.2 221.8,43.1 200.8,22.1 200.7,22.1 179.7,43.1 		"/>
		<polygon class="st1" points="225.1,68.2 219.4,62.5 213.7,68.2 		"/>
		<polygon class="st1" points="220.1,24.5 225.8,30.2 225.8,18.8 		"/>
		<polygon class="st1" points="175.7,18.8 175.7,30.1 181.4,24.4 		"/>
		<polygon class="st1" points="201.3,20.6 223.2,42.5 235.6,42.5 201.3,8.2 		"/>
		<polygon class="st1" points="219.4,23.7 225.1,18 213.7,18 		"/>
		<polygon class="st1" points="200.5,102.8 200.5,101.6 195.9,97.5 191.3,93.5 191.3,102.7 200.5,110.8 		"/>
		<polygon class="st1" points="113.6,80.8 113.6,92.2 119.2,86.5 		"/>
		<polygon class="st1" points="116.2,104.6 138.1,82.7 138.1,70.2 103.7,104.6 		"/>
		<polygon class="st1" points="111.8,78.2 127.5,78.2 130.6,75.2 108.8,75.2 108.8,97 111.8,94 		"/>
		<polygon class="st1" points="114.3,80.1 120,85.7 125.7,80.1 		"/>
		<polygon class="st1" points="163.7,129.4 163.7,118.1 158,123.7 		"/>
		<polygon class="st1" points="138.1,140.1 138.1,127.6 116.2,105.7 103.7,105.7 133.1,135.1 133.2,135.1 133.2,135.1 		"/>
		<polygon class="st1" points="161.1,105.7 139.2,127.6 139.2,140.1 173.5,105.7 		"/>
		<polygon class="st1" points="289.6,78.2 289.6,93.9 292.7,97 292.7,75.2 270.9,75.2 273.9,78.2 		"/>
		<polygon class="st1" points="120,124.5 114.3,130.2 125.6,130.2 		"/>
		<polygon class="st1" points="138.6,84.1 117.6,105.1 117.6,105.2 138.6,126.2 159.7,105.1 		"/>
		<polygon class="st1" points="200.5,114 200.5,112.7 200,112.3 191.3,104.6 191.3,113.8 200.5,121.9 		"/>
		<polygon class="st1" points="200.5,99.7 200.5,91.7 200.5,90.4 195.9,86.4 191.3,82.3 191.3,91.5 195.9,95.6 		"/>
		<polygon class="st1" points="200.5,88.5 200.5,80.8 194.7,75.1 194.7,75.3 191.3,75.3 191.3,80.4 195.9,84.5 		"/>
		<polygon class="st1" points="111.8,132 111.8,116.3 108.8,113.3 108.8,135.1 130.6,135.1 127.5,132 		"/>
		<polygon class="st1" points="189.6,70 173.9,70 173.9,54.2 170.8,51.1 170.8,73 170.8,73 170.8,73.1 189.9,73.1 189.9,70.2 		"/>
		<polygon class="st1" points="165.5,132 149.8,132 146.7,135.1 168.7,135.1 168.7,113.1 165.5,116.3 		"/>
		<polygon class="st1" points="168.6,75.2 146.7,75.2 149.7,78.2 165.5,78.2 165.5,94 168.7,97.2 168.7,75.3 168.6,75.3 		"/>
		<polygon class="st1" points="119.2,123.8 113.6,118.1 113.6,129.4 		"/>
		<polygon class="st1" points="254.2,51.6 257.8,47.9 257.1,35.7 250.6,42.2 251.1,50.4 251.3,54.5 		"/>
		<polygon class="st1" points="250,55.8 249.7,51.6 249.2,43.6 242.7,50.1 243.4,62.4 244.7,61.1 247.6,58.2 		"/>
		<rect x="285.2" y="14.9" class="st1" width="6.8" height="6.8"/>
		<polygon class="st1" points="227.6,70 212.5,70 212.5,73.1 230.6,73.1 230.6,73.1 230.7,73.1 230.7,51.1 227.6,54.2 		"/>
		<polygon class="st1" points="232.8,75.3 232.8,75.3 232.8,97 235.9,93.9 235.9,78.2 251.6,78.2 254.6,75.2 232.8,75.2 		"/>
		<polygon class="st1" points="227.6,16.2 227.6,32 230.7,35 230.7,13.2 208.9,13.2 211.9,16.2 		"/>
		<polygon class="st1" points="253.9,53.9 252.3,55.5 258.4,55.9 264.6,56.2 271.1,49.7 258.9,49 		"/>
		<polygon class="st1" points="257.1,57.2 251,56.8 250.1,57.7 250.1,57.7 244.4,63.4 256.7,64.1 263.2,57.6 		"/>
		<polygon class="st1" points="173.9,16.2 189.6,16.2 192.6,13.2 170.8,13.2 170.8,35 173.9,31.9 		"/>
		<polygon class="st1" points="152.8,57.6 146.7,58 140.6,58.3 147.1,64.9 159.4,64.1 157.8,62.5 		"/>
		<polygon class="st1" points="139.2,70.2 139.2,82.7 161.1,104.6 173.5,104.6 144.1,75.2 144.1,75.2 144.1,75.2 		"/>
		<polygon class="st1" points="162.9,130.2 157.3,124.5 151.6,130.2 		"/>
		<polygon class="st1" points="157.2,85.8 162.9,80.1 151.5,80.1 		"/>
		<polygon class="st1" points="158,86.5 163.7,92.2 163.7,80.8 		"/>
		<polygon class="st1" points="154.4,48.3 153.9,56.6 154.1,56.8 154.7,57.5 154.7,57.5 157.5,60.2 160.4,63.1 161.1,50.9 
			154.6,44.3 		"/>
		<polygon class="st1" points="147.4,56.5 151.5,56.2 145,49.7 132.7,50.5 139.3,57 		"/>
		<polygon class="st1" points="151.3,54 152.5,55.2 153,47.1 153.3,43 146.7,36.5 146,48.7 		"/>
		<path class="st0" d="M222.9,146.5l-20.7-22.9l10.3-9.1v-11.1v-1.9v-9.2v-1.9V81v-1.9v-3.9h18.1v23.9l-5.9,5.9l5.9,5.9v26.3h26.1
			V137l6,6l5.8-5.8h26.3v-26.3l5.9-5.9l-5.9-5.9V73.1h-26.1l-6-6l-6,6h-22l7.5-7.5l0,0l0.9-0.9l14.1,0.9l8.6-8.6l8.6-8.6l-14.1-0.9
			l24.4-24.4h8.9v-9.7h-9.7V22l-24.6,24.6l-0.9-14.1l-7.9,7.9v0l-9.2,9.2l0.9,14.1l-0.9,0.9h0l-8.4,8.4V49l5.9-5.9l-5.9-5.9V11.1
			h-26.1l-6-6l-6,6h-26.1v26.1l-5.9,5.9l5.9,5.9v22.4l-6-6h0l-0.9-0.9l0.9-14.1l-9.2-9.2l0,0l-7.9-7.9l-0.9,14.1l-21.3-21.3
			l-0.5,0.5l-0.5,0.5l21.3,21.3l-14.1,0.9l9.2,9.2h0l7.9,7.9l14.1-0.9l0.9,0.9l0,0l6.7,6.7h-23.8l-5.9-5.9l-5.9,5.9h-26.1v26.1l-6,6
			l6,6v26.1h26.1l5.9,5.9l5.9-5.9h26.3v-26.1h-0.2l6-6l-5.8-5.8V75.3h19v3.9V81v9.2v1.9v9.2v1.9v11.1l10.3,9.1l-23.2,22.9H28.2
			L17,135.3L5.1,147.2L17,159.1L28.2,148h149.3l23.7-23.4l21.1,23.4h151.4v-1.5H222.9z M17,157.1l-9.8-9.8l9.8-9.8l9.8,9.8L17,157.1
			z M211.1,104.6v9.2l-9.2,8.1v-8v-1.3l6.7-5.9L211.1,104.6z M211.1,93.5v9.2l-2.7,2.4l-6.5,5.7v-8v-1.3l4.6-4.1L211.1,93.5z
			 M211.1,82.3v9.2l-4.6,4.1l-4.6,4.1v-8v-1.3l4.6-4.1L211.1,82.3z M170.8,37.6L170.8,37.6l29.4-29.5v12.5l-21.9,21.9h-12.5
			L170.8,37.6L170.8,37.6z M182.1,23.7l-5.7-5.7h11.3L182.1,23.7z M175.7,18.8l5.7,5.7l-5.7,5.7V18.8z M220.1,24.5l5.7-5.7v11.4
			L220.1,24.5z M219.4,23.7l-5.7-5.7h11.4L219.4,23.7z M235.6,42.5h-12.5l-21.9-21.9V8.2L235.6,42.5z M230.7,48.5L230.7,48.5
			l-29,29.1l-0.4,0.3V65.5l21.9-21.9h12.5L230.7,48.5L230.7,48.5z M211.1,73.1h-2.2l2.2-2V73.1z M200.7,22.1h0.1l21,21l-21.1,21.1
			l-21.1-21.1L200.7,22.1z M219.4,62.5l5.7,5.7h-11.4L219.4,62.5z M225.8,67.4l-5.7-5.7l5.7-5.7V67.4z M178.3,43.6l21.9,21.9v11.6
			l-7.4-6.5l-27-27H178.3z M181.4,61.7l-5.7,5.7V56L181.4,61.7z M182.1,62.5l5.7,5.7h-11.3L182.1,62.5z M192.8,73.1h-1.5v-1.5
			L192.8,73.1z M211.1,80.4l-4.6,4.1l-4.6,4.1v-8.6l4.6-4.6h4.6V80.4z M232.8,99.6L232.8,99.6l29.4-29.5v12.5l-21.9,21.9h-12.5
			L232.8,99.6L232.8,99.6z M244.1,85.7l-5.7-5.7h11.3L244.1,85.7z M237.7,80.8l5.7,5.7l-5.7,5.7V80.8z M282.1,86.5l5.7-5.7v11.4
			L282.1,86.5z M281.4,85.7l-5.7-5.7h11.4L281.4,85.7z M297.6,104.5h-12.5l-21.9-21.9V70.1L297.6,104.5z M292.7,110.5L292.7,110.5
			L263.3,140v-12.5l21.9-21.9h12.5L292.7,110.5L292.7,110.5z M281.4,124.4l5.7,5.7h-11.4L281.4,124.4z M287.8,129.4l-5.7-5.7
			l5.7-5.7V129.4z M243.4,123.7l-5.7,5.7V118L243.4,123.7z M244.1,124.5l5.7,5.7h-11.3L244.1,124.5z M227.8,105.6h12.5l21.9,21.9
			V140L227.8,105.6z M262.7,84h0.1l21,21l-21.1,21.1L241.7,105L262.7,84z M232.8,135.1v-22l3.1,3.1v15.7h15.7l3.2,3.2H232.8z
			 M292.7,135.1h-22l3.2-3.2h15.8v-15.8l3-3V135.1z M292.7,75.2V97l-3-3V78.2h-15.8l-3-3H292.7z M251.6,78.2h-15.7v15.7l-3.1,3.1
			V75.3h0v-0.1h21.7L251.6,78.2z M256.7,64.1l-12.2-0.8l5.6-5.6l0,0l0.9-0.9l6.1,0.4l6.1,0.4L256.7,64.1z M264.6,56.2l-6.1-0.4
			l-6.1-0.4l1.6-1.6l5-5l12.2,0.8L264.6,56.2z M285.2,14.9h6.8v6.8h-6.8V14.9z M250.6,42.2l6.5-6.5l0.8,12.2l-3.6,3.6l-2.9,2.9
			l-0.3-4.1L250.6,42.2z M243.4,62.4l-0.8-12.2l6.5-6.5l0.5,8l0.3,4.3l-2.4,2.4l-2.9,2.9L243.4,62.4z M230.7,73.1L230.7,73.1
			L230.7,73.1l-18.1,0.1V70h15.1V54.2l3-3V73.1z M230.7,13.2V35l-3-3V16.2h-15.8l-3-3H230.7z M170.8,13.2h21.8l-3,3h-15.7v15.7
			l-3.1,3.1V13.2z M160.4,63.1l-2.9-2.9l-2.7-2.7h0l-0.7-0.7l-0.2-0.2l0.5-8.3l0.2-4l6.5,6.5L160.4,63.1z M153.3,43l-0.3,4.1
			l-0.5,8.1l-1.2-1.2l-5.3-5.3l0.8-12.2L153.3,43z M145,49.7l6.5,6.5l-4.1,0.3l-8.1,0.5l-6.5-6.5L145,49.7z M147.1,64.9l-6.5-6.5
			l6.1-0.4l6.1-0.4l5,5l1.6,1.6L147.1,64.9z M144.1,75.2l29.4,29.4h-12.5l-21.9-21.9V70.2L144.1,75.2L144.1,75.2L144.1,75.2z
			 M158,86.5l5.7-5.7v11.4L158,86.5z M157.2,85.8l-5.7-5.7h11.4L157.2,85.8z M157.3,124.5l5.7,5.7h-11.3L157.3,124.5z M163.7,129.4
			l-5.7-5.7l5.7-5.7V129.4z M139.2,140.1v-12.5l21.9-21.9h12.5L139.2,140.1z M133.1,135.1l-29.4-29.4h12.5l21.9,21.9v12.5
			L133.1,135.1L133.1,135.1L133.1,135.1z M119.2,123.8l-5.7,5.7v-11.3L119.2,123.8z M120,124.5l5.7,5.7h-11.3L120,124.5z M120,85.7
			l-5.7-5.7h11.4L120,85.7z M113.6,80.8l5.7,5.7l-5.7,5.7V80.8z M138.1,70.2v12.5l-21.9,21.9h-12.5L138.1,70.2z M138.6,126.2l-21-21
			v-0.1l21-21l21.1,21.1L138.6,126.2z M108.8,75.2h21.8l-3,3h-15.8V94l-3,3V75.2z M108.8,135.1v-21.8l3,3V132h15.7l3.1,3.1H108.8z
			 M168.7,135.1h-22l3.1-3.1h15.7v-15.7l3.2-3.2V135.1z M168.7,97.2l-3.2-3.2V78.2h-15.8l-3-3h22v0.1h0V97.2z M170.8,73.1
			L170.8,73.1L170.8,73.1l0-22l3.1,3.1V70h15.7l0.2,0.2v2.9H170.8z M191.3,75.3h3.4v-0.2l5.8,5.8v7.7l-4.6-4.1l-4.6-4.1V75.3z
			 M191.3,82.3l4.6,4.1l4.6,4.1v1.3v8l-4.6-4.1l-4.6-4.1V82.3z M191.3,93.5l4.6,4.1l4.6,4.1v1.3v8l-9.2-8.1V93.5z M191.3,104.6
			l8.7,7.7l0.5,0.4v1.3v8l-9.2-8.1V104.6z"/>
		<path class="st0" d="M189.5,147.2l11.9,11.9l11.9-11.9l-11.9-11.9L189.5,147.2z M201.4,157.1l-9.8-9.8l9.8-9.8l9.8,9.8
			L201.4,157.1z"/>
		<path class="st0" d="M113.2,16.8v9.7h9.7v-9.7H113.2z M121.4,25.1h-6.8v-6.8h6.8V25.1z"/>
	</g>
</g>
</svg>
